Music_RocketBattle_Ch0::
	tempo 101
	volume 7, 7
	duty 3
	vibrato 16, 1, 5
	toggleperfectpitch

Music_RocketBattle_branch_1::
	notetype 12, 11, 2
	octave 4
	E_ 1
	D# 1
	D_ 1
	C# 1
	D_ 1
	C# 1
	C_ 1
	octave 3
	B_ 1
	octave 4
	C_ 1
	octave 3
	B_ 1
	A# 1
	A_ 1
	A# 1
	A_ 1
	G# 1
	G_ 1
	G# 1
	G_ 1
	F# 1
	F_ 1
	F# 1
	F_ 1
	E_ 1
	D# 1
	E_ 1
	D# 1
	D_ 1
	C# 1
	D_ 1
	C# 1
	C_ 1
	octave 2
	B_ 1
.loop1::
	notetype 12, 11, 2
	octave 3
	C_ 6
	C_ 4
	E_ 2
	notetype 12, 11, 7
	D_ 4
	loopchannel 3, .loop1
	notetype 12, 11, 2
	C_ 6
	C_ 6
	notetype 12, 11, 7
	D_ 4
.loop2::
	notetype 12, 11, 2
	octave 4
	E_ 6
	E_ 4
	G_ 2
	notetype 12, 11, 7
	F_ 4
	loopchannel 3, .loop2
	notetype 12, 11, 2
	E_ 6
	E_ 4
	notetype 12, 11, 7
	D_ 2
	D# 4
	notetype 12, 11, 3
	octave 4
	C_ 2
	octave 3
	E_ 2
	E_ 2
	A# 2
	F_ 2
	F_ 2
	A_ 2
	D_ 2
	D_ 2
	octave 4
	C_ 2
	octave 3
	E_ 2
	E_ 2
	A_ 2
	E_ 2
	D_ 2
	E_ 2
	F_ 2
	E_ 2
	F_ 2
	notetype 12, 11, 5
	G_ 4
	notetype 12, 11, 3
	G_ 2
	F_ 2
	D# 2
	D_ 2
	C# 2
	D_ 2
	notetype 12, 11, 5
	D# 4
	notetype 12, 11, 3
	D# 2
	D_ 2
	F_ 2
.mainloop::
	octave 4
	E_ 2
	octave 3
	E_ 2
	E_ 2
	octave 4
	D_ 2
	octave 3
	F_ 2
	F_ 2
	octave 4
	C_ 2
	octave 3
	D_ 2
	D_ 2
	octave 4
	E_ 2
	octave 3
	E_ 2
	E_ 2
	octave 4
	D_ 2
	octave 3
	E_ 2
	D_ 2
	E_ 2
	F_ 2
	E_ 2
	F_ 2
	notetype 12, 11, 5
	G_ 4
	notetype 12, 11, 3
	G_ 2
	F_ 2
	octave 4
	C_ 2
	D_ 2
	C_ 2
	D_ 2
	notetype 12, 11, 5
	F_ 4
	notetype 12, 11, 2
	octave 3
	F_ 2
	G_ 2
	G# 4
	notetype 12, 11, 5
	D_ 4
	C_ 4
	D_ 4
	E_ 2
	notetype 12, 11, 2
	F_ 2
	A_ 4
	notetype 12, 11, 7
	A_ 4
	notetype 12, 11, 5
	A_ 2
	G_ 2
	F_ 4
	D_ 4
	C_ 4
	D_ 4
	E_ 2
	F_ 2
	E_ 2
	D_ 2
	C_ 2
	A# 2
	G_ 2
	A_ 2
	A# 2
	notetype 12, 11, 7
	octave 4
	E_ 6
	D_ 4
	octave 3
	G_ 2
	A# 4
	A_ 6
	G_ 4
	E_ 2
	F_ 4
	E_ 6
	D_ 6
	D# 4
	notetype 12, 10, 0
	E_ 8
	notetype 12, 10, 7
	E_ 8
	notetype 12, 11, 7
	octave 2
	A_ 8
	G_ 8
	A_ 8
	A# 8
	A_ 8
	G_ 8
	A_ 8
	octave 3
	C# 8
	D_ 8
	C# 8
	octave 2
	A# 8
	A_ 8
	octave 3
	D_ 8
	C# 8
	D_ 8
	E_ 8
	octave 2
	A# 6
	octave 3
	D_ 6
	C_ 4
	notetype 12, 11, 5
	octave 2
	A# 2
	octave 3
	C_ 2
	D_ 2
	E_ 2
	F_ 2
	G_ 2
	A_ 2
	A# 2
	A_ 2
	E_ 2
	A_ 2
	A# 2
	A_ 2
	E_ 2
	D_ 2
	E_ 2
	A_ 2
	E_ 2
	A_ 2
	octave 4
	C# 2
	D_ 2
	C# 2
	octave 3
	A# 2
	G_ 2
	notetype 12, 11, 2
	E_ 6
	E_ 6
	E_ 4
	E_ 6
	E_ 4
	notetype 12, 11, 7
	G_ 2
	F_ 4
	notetype 12, 11, 2
	E_ 6
	E_ 4
	notetype 12, 11, 7
	G_ 2
	F_ 4
	notetype 12, 11, 2
	E_ 6
	octave 4
	D_ 1
	D# 1
	notetype 12, 10, 0
	E_ 8
	notetype 12, 11, 2
	octave 3
	F_ 6
	F_ 4
	notetype 12, 11, 7
	A# 2
	G_ 4
.loop3::
	notetype 12, 11, 2
	F_ 6
	F_ 4
	notetype 12, 11, 7
	A_ 2
	G_ 4
	loopchannel 2, .loop3
	notetype 12, 11, 2
	F_ 6
	octave 4
	D_ 1
	E_ 1
	notetype 12, 10, 0
	F_ 8
	notetype 12, 11, 3
	D_ 2
	octave 3
	A_ 2
	E_ 2
	A_ 4
	A_ 2
	notetype 12, 11, 7
	octave 4
	D_ 4
	notetype 12, 11, 3
	D# 2
	octave 3
	A# 2
	G_ 2
	A# 4
	A# 2
	notetype 12, 11, 7
	octave 4
	D_ 4
	notetype 12, 11, 3
	E_ 2
	C_ 2
	octave 3
	A_ 2
	octave 4
	C_ 4
	C_ 2
	notetype 12, 11, 7
	D# 4
	notetype 12, 10, 0
	E_ 4
	notetype 12, 10, 7
	E_ 6
	notetype 12, 10, 0
	octave 3
	G# 6
	notetype 12, 11, 3
	C_ 2
	E_ 2
	E_ 2
	octave 2
	A# 2
	octave 3
	F_ 2
	F_ 2
	octave 2
	A_ 2
	octave 3
	D_ 2
	D_ 2
	C_ 2
	E_ 2
	E_ 2
	octave 2
	A_ 2
	octave 3
	E_ 2
	D_ 2
	C_ 2
	C_ 2
	octave 2
	A# 2
	octave 3
	C_ 2
	notetype 12, 11, 5
	D_ 4
	notetype 12, 11, 3
	D_ 2
	C_ 2
	octave 2
	A# 2
	octave 3
	D_ 2
	C# 2
	D_ 2
	notetype 12, 11, 5
	D# 4
	notetype 12, 11, 3
	D# 2
	D_ 2
	F_ 2
	loopchannel 0, .mainloop

Music_RocketBattle_Ch1::
	duty 3
	vibrato 8, 3, 6
	toggleperfectpitch
	notetype 12, 11, 2
	octave 4
	A_ 4
	A# 4
	B_ 4
	octave 5
	C_ 1
	notetype 12, 8, 2
	octave 4
	G# 1
	A_ 1
	G# 1
	notetype 12, 12, 2
	octave 5
	C# 1
	notetype 12, 9, 2
	octave 4
	G# 1
	A_ 1
	G# 1
	notetype 12, 12, 2
	octave 5
	D_ 1
	notetype 12, 10, 2
	octave 4
	G# 1
	A_ 1
	G# 1
	notetype 12, 12, 2
	octave 5
	D# 1
	notetype 12, 11, 2
	octave 4
	G# 1
	A_ 1
	G# 1
	notetype 12, 12, 2
	octave 5
	E_ 1
	octave 4
	G# 1
	A_ 1
	G# 1
.loop1::
	notetype 12, 12, 2
	octave 3
	A_ 6
	A_ 4
	octave 4
	C_ 2
	notetype 12, 12, 7
	octave 3
	A# 4
	loopchannel 3, .loop1
	notetype 12, 12, 2
	A_ 6
	A_ 6
	notetype 12, 4, -2
	G# 4
.loop2::
	notetype 12, 12, 2
	octave 4
	A_ 6
	A_ 4
	octave 5
	C_ 2
	notetype 12, 12, 7
	octave 4
	A# 4
	loopchannel 3, .loop2
	notetype 12, 12, 2
	A_ 6
	A_ 4
	notetype 12, 12, 7
	G_ 2
	G# 4
	callchannel .sub1
	notetype 12, 11, 0
	F_ 16
	notetype 12, 11, 7
	F_ 16
.mainloop::
	callchannel .sub1
	notetype 12, 11, 0
	F_ 8
	notetype 12, 11, 7
	F_ 8
	notetype 12, 11, 0
	A# 8
	notetype 12, 11, 7
	A# 8
	notetype 12, 12, 4
	octave 3
	A_ 2
	G_ 2
	A_ 2
	notetype 12, 12, 7
	octave 4
	C_ 4
	octave 3
	A# 2
	A_ 2
	G_ 2
	notetype 12, 12, 2
	A_ 2
	octave 4
	C_ 4
	notetype 12, 11, 0
	C_ 6
	notetype 12, 11, 7
	C_ 4
	notetype 12, 12, 4
	octave 3
	A# 2
	A_ 2
	A# 2
	notetype 12, 12, 7
	octave 4
	D_ 4
	C_ 2
	octave 3
	A# 2
	A_ 2
	notetype 12, 12, 2
	A# 2
	octave 4
	D_ 4
	notetype 12, 11, 0
	D_ 4
	notetype 12, 11, 7
	D_ 6
	notetype 12, 4, -7
	A_ 6
	notetype 12, 10, 0
	G_ 6
	F_ 4
	E_ 6
	F_ 6
	G_ 4
	A_ 6
	A# 6
	G# 4
	A_ 6
	notetype 12, 10, 7
	A_ 10
	notetype 12, 3, -7
	octave 3
	D_ 8
	notetype 12, 11, 7
	D_ 8
	notetype 12, 3, -7
	C# 8
	notetype 12, 11, 7
	C# 8
	notetype 12, 3, -7
	D_ 8
	notetype 12, 11, 7
	D_ 8
	notetype 12, 3, -7
	E_ 8
	notetype 12, 11, 7
	E_ 8
	notetype 12, 4, -6
	F_ 8
	notetype 12, 10, 0
	F_ 8
	E_ 16
	F_ 16
	A_ 16
	notetype 12, 3, -7
	F_ 16
	notetype 12, 12, 7
	octave 4
	D_ 8
	C# 8
	notetype 12, 11, 0
	E_ 8
	notetype 12, 11, 7
	E_ 8
	notetype 12, 3, -4
	A_ 6
	notetype 12, 12, 7
	A_ 10
	notetype 12, 12, 2
	octave 3
	A_ 6
	A_ 6
	A_ 4
	A_ 6
	A_ 4
	notetype 12, 12, 7
	octave 4
	C_ 2
	octave 3
	A# 4
	notetype 12, 12, 2
	A_ 6
	A_ 4
	notetype 12, 12, 7
	octave 4
	C_ 2
	octave 3
	A# 4
	notetype 12, 12, 2
	A_ 6
	notetype 12, 12, 7
	octave 4
	G_ 1
	G# 1
	A_ 8
.loop3::
	notetype 12, 12, 2
	octave 3
	A# 6
	A# 4
	notetype 12, 12, 7
	octave 4
	D_ 2
	C_ 4
	loopchannel 3, .loop3
	notetype 12, 12, 2
	octave 3
	A# 6
	notetype 12, 12, 7
	octave 4
	G_ 1
	A_ 1
	A# 8
	notetype 12, 12, 7
	A_ 6
	G_ 6
	A_ 4
	A# 6
	octave 5
	D_ 6
	octave 4
	A# 4
	A_ 6
	G_ 6
	notetype 12, 12, 5
	A_ 4
	notetype 12, 11, 0
	A_ 8
	notetype 12, 11, 7
	A_ 8
	notetype 12, 12, 6
	octave 3
	A_ 6
	G# 6
	E_ 4
	A_ 6
	G# 6
	E_ 4
	notetype 12, 11, 0
	F_ 8
	notetype 12, 11, 7
	F_ 8
	notetype 12, 3, -5
	A# 8
	notetype 12, 12, 7
	A# 8
	loopchannel 0, .mainloop

.sub1::
	notetype 12, 12, 6
	octave 4
	A_ 6
	G# 6
	E_ 4
	A_ 6
	G# 6
	E_ 4
	endchannel

Music_RocketBattle_Ch2::
	notetype 12, 1, 9
	octave 3
	A_ 2
	octave 4
	E_ 2
	octave 3
	G# 2
	octave 4
	E_ 2
	octave 3
	G_ 2
	octave 4
	E_ 2
	octave 3
	F# 2
	octave 4
	E_ 2
	octave 3
	F_ 2
	octave 4
	E_ 2
	octave 3
	E_ 2
	octave 4
	E_ 2
	octave 2
	B_ 2
	octave 3
	C_ 2
	octave 2
	B_ 2
	A# 2
.loop1::
	callchannel .sub1
	loopchannel 3, .loop1
	octave 2
	A_ 2
	octave 3
	E_ 2
	D_ 2
	octave 2
	A_ 2
	octave 3
	G_ 2
	F_ 2
	E_ 2
	D_ 2
.loop2::
	callchannel .sub1
	loopchannel 3, .loop2
	octave 2
	A_ 2
	octave 3
	E_ 2
	D_ 2
	octave 2
	A_ 2
	octave 3
	G_ 2
	octave 2
	G_ 2
	A_ 2
	A# 2
	callchannel .sub2
	callchannel .sub3
	octave 3
	F_ 2
	callchannel .sub4
.mainloop::
	callchannel .sub2
	callchannel .sub3
	octave 3
	A# 2
	octave 2
	A# 2
	octave 3
	F_ 2
	octave 2
	A# 2
	octave 3
	F_ 2
	octave 2
	A# 2
	octave 3
	F_ 2
	E_ 2
	D_ 2
	callchannel .sub5
	octave 2
	A_ 2
	octave 3
	E_ 2
	A_ 2
	octave 2
	A_ 2
	octave 3
	E_ 2
	A_ 2
	octave 2
	A_ 2
	octave 3
	E_ 2
.loop3::
	octave 2
	A# 2
	octave 3
	F_ 2
	loopchannel 5, .loop3
	A# 2
	octave 2
	A# 2
	octave 3
	F_ 2
	A# 2
	octave 2
	A# 2
	octave 3
	A# 2
	callchannel .sub5
	octave 2
	A_ 2
	octave 3
	E_ 2
	octave 2
	A_ 2
	octave 3
	E_ 2
	octave 2
	A_ 2
	octave 3
	F_ 2
	E_ 2
	D_ 2
	callchannel .sub5
	callchannel .sub5
.loop4::
	octave 2
	A_ 2
	octave 3
	E_ 2
	D_ 2
	octave 2
	A# 2
	A_ 2
	octave 3
	D_ 2
	G_ 2
	F_ 2
	loopchannel 7, .loop4
	octave 2
	A_ 2
	octave 3
	E_ 2
	D_ 2
	octave 2
	A# 2
	A_ 2
	octave 3
	A_ 2
	G_ 2
	F_ 2
.loop5::
	octave 2
	A# 2
	octave 3
	F_ 2
	loopchannel 4, .loop5
	octave 2
	A# 2
	octave 3
	F_ 2
	G_ 2
	F_ 2
	E_ 2
	D_ 2
	C# 2
	D_ 2
.loop6::
	octave 2
	A_ 2
	octave 3
	E_ 2
	loopchannel 13, .loop6
	octave 2
	A_ 2
	octave 3
	E_ 4
	D_ 2
	C_ 2
	octave 2
	A# 2
.loop7::
	octave 2
	A_ 2
	octave 3
	E_ 2
	loopchannel 4, .loop7
	octave 2
	A_ 2
	octave 4
	D_ 2
	octave 3
	A_ 2
	A# 4
	A_ 2
	G_ 2
	A# 2
.loop8::
	octave 2
	A# 2
	octave 3
	F_ 2
	loopchannel 7, .loop8
	E_ 2
	F_ 2
.loop9::
	octave 2
	A# 2
	octave 3
	F_ 2
	loopchannel 5, .loop9
	octave 3
	A# 2
	octave 4
	D_ 4
	C_ 2
	octave 3
	A# 2
	G_ 2
	callchannel .sub6
	octave 3
	E_ 2
	callchannel .sub3
	octave 3
	F_ 2
	callchannel .sub6
	octave 3
	A_ 2
	octave 2
	A_ 2
	octave 3
	E_ 2
	octave 2
	A_ 2
	octave 3
	E_ 2
	octave 2
	A_ 2
	octave 3
	E_ 2
	octave 2
	A_ 2
	octave 3
	E_ 2
	callchannel .sub2
	callchannel .sub3
	octave 3
	F_ 2
	callchannel .sub4
	loopchannel 0, .mainloop

.sub1::
	octave 2
	A_ 2
	octave 3
	E_ 2
	D_ 2
	octave 2
	A_ 2
	A# 2
	octave 3
	E_ 2
	G_ 2
	F_ 2
	endchannel

.sub2::
	octave 2
	A_ 2
	octave 3
	E_ 2
	octave 2
	A_ 2
	octave 3
	E_ 2
	octave 2
	A_ 2
	octave 3
	E_ 2
	D# 2
	E_ 2
	octave 2
	A_ 2
	octave 3
	E_ 2
	octave 2
	A_ 2
	octave 3
	E_ 2
	octave 2
	A_ 2
	octave 3
	E_ 2
	D# 2
	D_ 2
	endchannel

.sub3::
	octave 2
	A# 2
	octave 3
	F_ 2
	A# 2
	octave 2
	A# 2
	octave 3
	F_ 2
	A# 2
	octave 2
	A# 2
	endchannel

.sub4::
	octave 2
	A# 2
	octave 3
	F_ 2
	A# 2
	F_ 2
	A# 2
	F_ 2
	octave 2
	A# 2
	octave 3
	F_ 2
	endchannel

.sub5::
.sub5loop1::
	octave 2
	A_ 2
	octave 3
	E_ 2
	loopchannel 4, .sub5loop1
	endchannel

.sub6::
	octave 2
	A_ 2
	octave 3
	E_ 2
	A_ 2
	octave 2
	A_ 2
	octave 3
	E_ 2
	A_ 2
	octave 2
	A_ 2
	endchannel